<svg xmlns="http://www.w3.org/2000/svg" xmlns:xlink="http://www.w3.org/1999/xlink" viewBox="0 0 160 160"><defs><style>.cls-1{fill:none;}.cls-2{fill:#f4f4f4;}.cls-3{clip-path:url(#clip-path);}.cls-4{fill:#ec6608;}</style><clipPath id="clip-path"><circle class="cls-1" cx="80" cy="80" r="73.42"/></clipPath></defs><title>illustration-enpratique-02</title><g id="separateur-titre"><path class="cls-2" d="M80,3A77,77,0,1,1,3,80,77.08,77.08,0,0,1,80,3m0-3a80,80,0,1,0,80,80A80,80,0,0,0,80,0Z"/></g><g id="offre-abo-on"><g class="cls-3"><path d="M63,133.18A28.36,28.36,0,0,0,83,84.69a28.79,28.79,0,0,0-20.17-8.44,27.58,27.58,0,0,0-17,5.73l-.94.73-.55-1.06A51.52,51.52,0,0,1,38.7,60.93V60.8a16.42,16.42,0,0,0-.12-3.49,1.77,1.77,0,0,1,0-.35v-.72l.16-.16a2.07,2.07,0,0,0-1.7-2.2L20.27,50.44l-.36-.08-.23-.29L2.17,27.41h0a9.51,9.51,0,0,0-7.49-3.66A9.49,9.49,0,0,0-14.8,33.2V59A13.61,13.61,0,0,0-8.11,70.64L18.16,86l.49.29V87.8l-.42.3A66.11,66.11,0,0,1,4.9,95.4L4,95.78l-.37-1A28.61,28.61,0,0,0-6.64,81.59,28.14,28.14,0,0,0-23,76.4a28.19,28.19,0,0,0-20,8.31,28.16,28.16,0,0,0-8.36,20.08,28.24,28.24,0,0,0,8.3,20.09A28.24,28.24,0,0,0-23,133.18a28.24,28.24,0,0,0,20.08-8.3,28.21,28.21,0,0,0,8.31-20.09,36.72,36.72,0,0,0-.31-4.11L5,99.93l.69-.28A85.1,85.1,0,0,0,17,94.09l1.56-.92L18.49,95l-.62,21.87A2.23,2.23,0,0,0,19.74,119H20a2.19,2.19,0,0,0,2.15-1.72l6.72-32.5.05-.25.17-.2c.91-1.06,1.85-2.15,2.6-3.21A36.65,36.65,0,0,0,35.35,75l1.06-2.28.79,2.38a61,61,0,0,0,4.3,10.15l.34.6-.45.53A28.37,28.37,0,0,0,63,133.18Zm-86-4.26a24.23,24.23,0,0,1-24.29-24.13A24.16,24.16,0,0,1-23.14,80.66,24.16,24.16,0,0,1-.64,96.32l.37,1-1,.31a146.14,146.14,0,0,1-22.17,5,2.18,2.18,0,0,0-1.85,2.43A2.24,2.24,0,0,0-23.2,107a2.07,2.07,0,0,0,.35,0h0a136.43,136.43,0,0,0,22.5-5.12l1-.33.26,1a9.41,9.41,0,0,1,.19,2.27A24.16,24.16,0,0,1-23,128.92ZM34.75,59.15v2.08a31.43,31.43,0,0,1-4.84,14.86l-.55.89-.87-.6L2.23,57.93l-.44-.31,0-.53.31-9.38.08-2.15L3.79,47l12,10.91a2.72,2.72,0,0,0,1.54.56l16.41-.31,1,0ZM43.46,91l.82-1L45,91.09A55.31,55.31,0,0,0,62,106.84a3.4,3.4,0,0,0,1,.24,2.31,2.31,0,0,0,1.94-1.19,2.38,2.38,0,0,0,.17-1.67,1.84,1.84,0,0,0-1-1.19A49.57,49.57,0,0,1,47.78,87.37l-.5-.74.68-.57a23,23,0,0,1,15-5.4,24.13,24.13,0,1,1-24.13,24.13A21.7,21.7,0,0,1,43.46,91Z"/><path d="M44.86,56.49v0l3.44,12.51v0a2,2,0,0,0,2,1.56H68.14A1.75,1.75,0,0,0,70,69.2v-.08l0-.07,3.43-12.51v0a1.73,1.73,0,0,0-.3-1.72,2.29,2.29,0,0,0-1.73-.87H46.88a2.08,2.08,0,0,0-1.64.76A2.23,2.23,0,0,0,44.86,56.49Z"/><circle cx="-5.79" cy="8.04" r="11.04" transform="translate(-1.36 -0.82) rotate(-9.22)"/></g><path class="cls-4" d="M125.42,79.75h-11.5a3,3,0,0,0-3,3V87l-11,4.92,11,16.7v21.87a3,3,0,0,0,3,3h11.5a3,3,0,0,0,3-3V82.75A3,3,0,0,0,125.42,79.75Zm-5.75,13.58a4.17,4.17,0,1,1,4.16-4.16A4.16,4.16,0,0,1,119.67,93.33Z"/><path d="M104.24,70a1.62,1.62,0,0,0,0-2.3l-5.48-5.48,5.48-5.48a1.62,1.62,0,0,0,0-2.3,1.64,1.64,0,0,0-2.3,0L95.31,61.1a1.64,1.64,0,0,0,0,2.3L101.94,70A1.64,1.64,0,0,0,104.24,70Z"/><path d="M115.12,70a1.64,1.64,0,0,0,0-2.3l-5.48-5.48,5.48-5.48a1.63,1.63,0,0,0-2.3-2.3l-6.63,6.63a1.64,1.64,0,0,0,0,2.3L112.82,70A1.64,1.64,0,0,0,115.12,70Z"/><path d="M125.8,70a1.64,1.64,0,0,0,0-2.3l-5.48-5.48,5.48-5.48a1.63,1.63,0,1,0-2.3-2.3l-6.63,6.63a1.62,1.62,0,0,0,0,2.3L123.5,70A1.64,1.64,0,0,0,125.8,70Z"/></g></svg>