<svg xmlns="http://www.w3.org/2000/svg" xmlns:xlink="http://www.w3.org/1999/xlink" viewBox="0 0 160 160"><defs><style>.cls-1{fill:none;}.cls-2{fill:#f4f4f4;}.cls-3{fill:#ec6608;}.cls-4{fill:#fff;}.cls-5{clip-path:url(#clip-path);}</style><clipPath id="clip-path"><circle class="cls-1" cx="280" cy="80" r="73.42"/></clipPath></defs><title>illustration-enpratique-01</title><g id="separateur-titre"><path class="cls-2" d="M80,3A77,77,0,1,1,3,80,77.08,77.08,0,0,1,80,3m0-3a80,80,0,1,0,80,80A80,80,0,0,0,80,0Z"/></g><g id="offre-abo-on"><path d="M112.32,99H96.47a2.13,2.13,0,0,1-1.83-1.23H69v.85c0,1.89,1.24,3.43,2.76,3.43H137c1.53,0,2.76-1.54,2.76-3.43v-.85H114.15A2.13,2.13,0,0,1,112.32,99Zm-38-3.5h60.14a1.19,1.19,0,0,0,1.2-1.18V56.77a4.76,4.76,0,0,0-4.82-4.68H77.93a4.74,4.74,0,0,0-4.81,4.68v37.5A1.19,1.19,0,0,0,74.32,95.45Zm1.51-39a1.27,1.27,0,0,1,1.3-1.25h54.42a1.27,1.27,0,0,1,1.29,1.25V91.42a1.27,1.27,0,0,1-1.29,1.25H77.13a1.27,1.27,0,0,1-1.3-1.25Z"/><path d="M21,45v3.17H66.18V45a4.06,4.06,0,0,0-4.06-4.06h-37A4.07,4.07,0,0,0,21,45Zm0,61v6.78a4.07,4.07,0,0,0,4.07,4.06H62.12a4.06,4.06,0,0,0,4.06-4.06V106Zm22.59,2.71a2.71,2.71,0,1,1-2.71,2.71A2.71,2.71,0,0,1,43.59,108.67Z"/><rect class="cls-3" x="21" y="51.72" width="45.18" height="50.6"/><path d="M56.52,118.8a5.26,5.26,0,0,1-5.26-5.25,7.38,7.38,0,0,1,6.29-7.26l9.55-1.5-18-18a6.43,6.43,0,1,1,9.12-9.07l4,4a6.53,6.53,0,0,1,1-1.29,6.45,6.45,0,0,1,7.35-1.24,6.54,6.54,0,0,1,1.18-1.61,6.41,6.41,0,0,1,7.33-1.24,6.43,6.43,0,0,1,5.74-3.5,6.3,6.3,0,0,1,4.46,1.82l.1.1,10.69,11.75a16.61,16.61,0,0,1-.55,22.92l-4.47,4.47a16.51,16.51,0,0,1-11.76,4.87Z"/><path class="cls-4" d="M84.86,74.87a4.33,4.33,0,0,1,3.06,1.24l0,0,0,0,10.65,11.7A14.61,14.61,0,0,1,98.15,108l-4.47,4.48a14.56,14.56,0,0,1-10.35,4.28H56.52a3.26,3.26,0,0,1-3.26-3.25,5.38,5.38,0,0,1,4.57-5.28l13.46-2.11L50.53,85.39a4.37,4.37,0,0,1-1.29-3.13,4.43,4.43,0,0,1,7.58-3.11l6.61,6.6a4.43,4.43,0,0,1,4.37-5.17,4.39,4.39,0,0,1,3.12,1.29l1,1a4.52,4.52,0,0,1-.06-.74A4.45,4.45,0,0,1,73.2,79a4.41,4.41,0,0,1,6.25,0l1,1a4.49,4.49,0,0,1-.06-.73,4.46,4.46,0,0,1,4.46-4.44m0-4h0a8.38,8.38,0,0,0-6,2.46c-.2.21-.39.42-.58.64a8.13,8.13,0,0,0-2-.24,8.38,8.38,0,0,0-6,2.47,8,8,0,0,0-.56.62,8.48,8.48,0,0,0-7.7,2l-2.46-2.46a8.43,8.43,0,0,0-11.92,0,8.46,8.46,0,0,0-2.49,6,8.37,8.37,0,0,0,2.46,6l15.21,15.2-5.7.9a9.37,9.37,0,0,0-8,9.23,7.26,7.26,0,0,0,7.26,7.25H83.33a18.55,18.55,0,0,0,13.18-5.45l4.47-4.48a18.61,18.61,0,0,0,.61-25.68L90.94,73.49l-.07-.08-.11-.11a8.3,8.3,0,0,0-5.9-2.43Z"/><g class="cls-5"><path d="M263,133.18a28.36,28.36,0,0,0,20-48.49,28.79,28.79,0,0,0-20.17-8.44,27.58,27.58,0,0,0-17,5.73l-.94.73-.55-1.06a51.52,51.52,0,0,1-5.58-20.72V60.8a16.42,16.42,0,0,0-.12-3.49,1.77,1.77,0,0,1,0-.35v-.72l.16-.16a2.07,2.07,0,0,0-1.7-2.2l-16.73-3.44-.36-.08-.23-.29L202.17,27.41h0a9.48,9.48,0,0,0-17,5.81V59a13.61,13.61,0,0,0,6.69,11.64L218.16,86l.49.29V87.8l-.42.3a66.11,66.11,0,0,1-13.33,7.3l-.94.38-.37-1a28.61,28.61,0,0,0-10.23-13.24,28.39,28.39,0,1,0,12,23.2,36.72,36.72,0,0,0-.31-4.11l-.08-.75.69-.28A85.1,85.1,0,0,0,217,94.09l1.56-.92-.06,1.8-.62,21.87a2.23,2.23,0,0,0,1.87,2.12H220a2.19,2.19,0,0,0,2.15-1.72l6.72-32.5,0-.25.17-.2c.91-1.06,1.85-2.15,2.6-3.21A36.65,36.65,0,0,0,235.35,75l1.06-2.28.79,2.38a61,61,0,0,0,4.3,10.15l.34.6-.45.53A28.37,28.37,0,0,0,263,133.18Zm-86-4.26a24.13,24.13,0,1,1,22.34-32.6l.37,1-1,.31a146.14,146.14,0,0,1-22.17,5,2.18,2.18,0,0,0-1.85,2.43A2.24,2.24,0,0,0,176.8,107a2.07,2.07,0,0,0,.35,0h0a136.43,136.43,0,0,0,22.5-5.12l1-.33.26,1a9.41,9.41,0,0,1,.19,2.27A24.16,24.16,0,0,1,177,128.92Zm57.73-69.77v2.08a31.43,31.43,0,0,1-4.84,14.86l-.55.89-.87-.6L202.23,57.93l-.44-.31,0-.53.31-9.38.08-2.15L203.79,47l12,10.91a2.72,2.72,0,0,0,1.54.56l16.41-.31,1,0ZM243.46,91l.82-1,.76,1.07A55.31,55.31,0,0,0,262,106.84a3.4,3.4,0,0,0,1,.24,2.31,2.31,0,0,0,1.94-1.19,2.38,2.38,0,0,0,.17-1.67,1.84,1.84,0,0,0-1-1.19,49.57,49.57,0,0,1-16.32-15.66l-.5-.74.68-.57a23,23,0,0,1,15-5.4,24.13,24.13,0,1,1-24.13,24.13A21.7,21.7,0,0,1,243.46,91Z"/></g></g></svg>